<svg width="205" height="33" viewBox="0 0 205 33" fill="none" xmlns="http://www.w3.org/2000/svg">
<rect y="1" width="5" height="27" fill="#FF484B"/>
<path d="M15.072 24.168C14.752 24.168 14.504 24.08 14.328 23.904C14.168 23.712 14.088 23.456 14.088 23.136V7.92C14.088 7.584 14.168 7.336 14.328 7.176C14.504 7 14.752 6.912 15.072 6.912C15.392 6.912 15.632 7 15.792 7.176C15.968 7.336 16.056 7.584 16.056 7.92V14.76H16.104L23.928 7.464C24.12 7.272 24.312 7.136 24.504 7.056C24.696 6.96 24.904 6.912 25.128 6.912C25.432 6.912 25.648 6.984 25.776 7.128C25.92 7.272 25.976 7.448 25.944 7.656C25.912 7.864 25.8 8.064 25.608 8.256L17.424 15.84L17.448 14.784L25.992 22.68C26.232 22.904 26.36 23.136 26.376 23.376C26.392 23.6 26.32 23.792 26.16 23.952C26.016 24.096 25.792 24.168 25.488 24.168C25.248 24.168 25.04 24.112 24.864 24C24.704 23.904 24.52 23.752 24.312 23.544L16.104 16.032H16.056V23.136C16.056 23.456 15.976 23.712 15.816 23.904C15.656 24.08 15.408 24.168 15.072 24.168ZM31.7453 24.12C31.4253 24.12 31.1853 24.032 31.0253 23.856C30.8653 23.664 30.7853 23.4 30.7853 23.064V13.248C30.7853 12.912 30.8653 12.656 31.0253 12.48C31.1853 12.304 31.4253 12.216 31.7453 12.216C32.0493 12.216 32.2893 12.304 32.4653 12.48C32.6413 12.656 32.7293 12.912 32.7293 13.248V23.064C32.7293 23.4 32.6413 23.664 32.4653 23.856C32.3053 24.032 32.0653 24.12 31.7453 24.12ZM31.7453 9.528C31.3453 9.528 31.0333 9.424 30.8093 9.216C30.5853 8.992 30.4733 8.696 30.4733 8.328C30.4733 7.944 30.5853 7.656 30.8093 7.464C31.0333 7.256 31.3453 7.152 31.7453 7.152C32.1613 7.152 32.4733 7.256 32.6813 7.464C32.9053 7.656 33.0173 7.944 33.0173 8.328C33.0173 8.696 32.9053 8.992 32.6813 9.216C32.4733 9.424 32.1613 9.528 31.7453 9.528ZM41.7154 24.216C40.9154 24.216 40.1954 24.064 39.5554 23.76C38.9314 23.44 38.4354 23.008 38.0674 22.464C37.6994 21.92 37.5154 21.312 37.5154 20.64C37.5154 19.776 37.7314 19.096 38.1634 18.6C38.6114 18.104 39.3394 17.752 40.3474 17.544C41.3714 17.336 42.7634 17.232 44.5234 17.232H45.6034V18.504H44.5474C43.2514 18.504 42.2274 18.568 41.4754 18.696C40.7394 18.808 40.2194 19.008 39.9154 19.296C39.6274 19.584 39.4834 19.992 39.4834 20.52C39.4834 21.176 39.7074 21.712 40.1554 22.128C40.6194 22.544 41.2434 22.752 42.0274 22.752C42.6674 22.752 43.2274 22.6 43.7074 22.296C44.2034 21.992 44.5874 21.576 44.8594 21.048C45.1474 20.52 45.2914 19.912 45.2914 19.224V16.488C45.2914 15.496 45.0914 14.784 44.6914 14.352C44.2914 13.904 43.6354 13.68 42.7234 13.68C42.1634 13.68 41.6034 13.752 41.0434 13.896C40.4834 14.04 39.8914 14.272 39.2674 14.592C39.0434 14.704 38.8514 14.744 38.6914 14.712C38.5314 14.664 38.4034 14.576 38.3074 14.448C38.2114 14.32 38.1554 14.176 38.1394 14.016C38.1234 13.84 38.1554 13.672 38.2354 13.512C38.3314 13.352 38.4754 13.224 38.6674 13.128C39.3714 12.776 40.0674 12.52 40.7554 12.36C41.4434 12.2 42.0994 12.12 42.7234 12.12C43.7314 12.12 44.5634 12.288 45.2194 12.624C45.8754 12.944 46.3634 13.44 46.6834 14.112C47.0034 14.768 47.1634 15.616 47.1634 16.656V23.16C47.1634 23.48 47.0834 23.728 46.9234 23.904C46.7794 24.08 46.5634 24.168 46.2754 24.168C45.9714 24.168 45.7394 24.08 45.5794 23.904C45.4194 23.728 45.3394 23.48 45.3394 23.16V21.288H45.5554C45.4274 21.896 45.1794 22.416 44.8114 22.848C44.4594 23.28 44.0194 23.616 43.4914 23.856C42.9634 24.096 42.3714 24.216 41.7154 24.216ZM53.4099 24.168C53.0899 24.168 52.8499 24.08 52.6899 23.904C52.5299 23.728 52.4499 23.48 52.4499 23.16V13.152C52.4499 12.832 52.5299 12.592 52.6899 12.432C52.8499 12.256 53.0819 12.168 53.3859 12.168C53.6899 12.168 53.9219 12.256 54.0819 12.432C54.2579 12.592 54.3459 12.832 54.3459 13.152V15.216L54.0819 14.928C54.4179 14 54.9619 13.304 55.7139 12.84C56.4819 12.36 57.3619 12.12 58.3539 12.12C59.2819 12.12 60.0499 12.288 60.6579 12.624C61.2819 12.96 61.7459 13.472 62.0499 14.16C62.3539 14.832 62.5059 15.688 62.5059 16.728V23.16C62.5059 23.48 62.4179 23.728 62.2419 23.904C62.0819 24.08 61.8499 24.168 61.5459 24.168C61.2259 24.168 60.9779 24.08 60.8019 23.904C60.6419 23.728 60.5619 23.48 60.5619 23.16V16.848C60.5619 15.76 60.3459 14.968 59.9139 14.472C59.4979 13.96 58.8259 13.704 57.8979 13.704C56.8259 13.704 55.9699 14.04 55.3299 14.712C54.7059 15.368 54.3939 16.248 54.3939 17.352V23.16C54.3939 23.832 54.0659 24.168 53.4099 24.168Z" fill="black"/>
<path d="M76.6014 24.144C76.3774 24.144 76.2014 24.08 76.0734 23.952C75.9454 23.808 75.8814 23.616 75.8814 23.376V7.68C75.8814 7.44 75.9454 7.256 76.0734 7.128C76.2014 7 76.3774 6.936 76.6014 6.936C76.8414 6.936 77.0254 7 77.1534 7.128C77.2814 7.256 77.3454 7.44 77.3454 7.68V14.856H77.3934L85.6254 7.368C85.8014 7.224 85.9694 7.12 86.1294 7.056C86.2894 6.976 86.4574 6.936 86.6334 6.936C86.8574 6.936 87.0174 6.992 87.1134 7.104C87.2254 7.2 87.2734 7.328 87.2574 7.488C87.2414 7.632 87.1534 7.776 86.9934 7.92L78.2574 15.816L78.3054 14.904L87.4014 23.016C87.5934 23.192 87.6974 23.368 87.7134 23.544C87.7294 23.72 87.6734 23.864 87.5454 23.976C87.4334 24.088 87.2654 24.144 87.0414 24.144C86.8494 24.144 86.6814 24.104 86.5374 24.024C86.4094 23.944 86.2574 23.832 86.0814 23.688L77.3934 15.96H77.3454V23.376C77.3454 23.616 77.2814 23.808 77.1534 23.952C77.0414 24.08 76.8574 24.144 76.6014 24.144ZM92.7362 24.096C92.4962 24.096 92.3122 24.024 92.1842 23.88C92.0562 23.736 91.9922 23.544 91.9922 23.304V13.032C91.9922 12.776 92.0562 12.584 92.1842 12.456C92.3122 12.328 92.4962 12.264 92.7362 12.264C92.9602 12.264 93.1362 12.328 93.2642 12.456C93.3922 12.584 93.4562 12.776 93.4562 13.032V23.304C93.4562 23.544 93.3922 23.736 93.2642 23.88C93.1522 24.024 92.9762 24.096 92.7362 24.096ZM92.7362 9.36C92.4002 9.36 92.1362 9.272 91.9442 9.096C91.7682 8.92 91.6802 8.672 91.6802 8.352C91.6802 8.032 91.7682 7.792 91.9442 7.632C92.1362 7.456 92.4002 7.368 92.7362 7.368C93.0722 7.368 93.3282 7.456 93.5042 7.632C93.6962 7.792 93.7922 8.032 93.7922 8.352C93.7922 8.672 93.6962 8.92 93.5042 9.096C93.3282 9.272 93.0722 9.36 92.7362 9.36ZM102.593 24.192C101.809 24.192 101.105 24.04 100.481 23.736C99.8725 23.432 99.3845 23.016 99.0165 22.488C98.6645 21.96 98.4885 21.368 98.4885 20.712C98.4885 19.848 98.7045 19.168 99.1365 18.672C99.5685 18.176 100.297 17.832 101.321 17.64C102.345 17.432 103.753 17.328 105.545 17.328H106.577V18.408H105.569C104.129 18.408 103.001 18.472 102.185 18.6C101.385 18.712 100.825 18.928 100.505 19.248C100.185 19.568 100.025 20.016 100.025 20.592C100.025 21.312 100.273 21.896 100.769 22.344C101.265 22.792 101.937 23.016 102.785 23.016C103.473 23.016 104.073 22.856 104.585 22.536C105.113 22.2 105.529 21.744 105.833 21.168C106.137 20.592 106.289 19.936 106.289 19.2V16.464C106.289 15.392 106.073 14.616 105.641 14.136C105.209 13.64 104.521 13.392 103.577 13.392C102.969 13.392 102.377 13.472 101.801 13.632C101.241 13.792 100.641 14.048 100.001 14.4C99.8245 14.496 99.6645 14.528 99.5205 14.496C99.3925 14.464 99.2885 14.4 99.2085 14.304C99.1445 14.208 99.0965 14.096 99.0645 13.968C99.0485 13.824 99.0725 13.688 99.1365 13.56C99.2005 13.432 99.3125 13.328 99.4725 13.248C100.145 12.88 100.825 12.608 101.513 12.432C102.217 12.24 102.897 12.144 103.553 12.144C104.497 12.144 105.273 12.304 105.881 12.624C106.505 12.944 106.961 13.424 107.249 14.064C107.553 14.704 107.705 15.528 107.705 16.536V23.4C107.705 23.64 107.649 23.824 107.537 23.952C107.425 24.08 107.257 24.144 107.033 24.144C106.809 24.144 106.633 24.08 106.505 23.952C106.377 23.824 106.313 23.64 106.313 23.4V21.192H106.553C106.409 21.816 106.153 22.352 105.785 22.8C105.417 23.248 104.961 23.592 104.417 23.832C103.873 24.072 103.265 24.192 102.593 24.192ZM113.956 24.144C113.716 24.144 113.532 24.08 113.404 23.952C113.276 23.824 113.212 23.64 113.212 23.4V12.96C113.212 12.704 113.276 12.512 113.404 12.384C113.532 12.256 113.716 12.192 113.956 12.192C114.18 12.192 114.348 12.256 114.46 12.384C114.588 12.512 114.652 12.704 114.652 12.96V15.216L114.388 15.072C114.708 14.112 115.252 13.384 116.02 12.888C116.804 12.392 117.7 12.144 118.708 12.144C119.636 12.144 120.404 12.312 121.012 12.648C121.636 12.968 122.1 13.464 122.404 14.136C122.708 14.808 122.86 15.648 122.86 16.656V23.4C122.86 23.64 122.796 23.824 122.668 23.952C122.54 24.08 122.364 24.144 122.14 24.144C121.9 24.144 121.716 24.08 121.588 23.952C121.46 23.824 121.396 23.64 121.396 23.4V16.776C121.396 15.608 121.164 14.76 120.7 14.232C120.236 13.688 119.5 13.416 118.492 13.416C117.34 13.416 116.412 13.776 115.708 14.496C115.02 15.2 114.676 16.152 114.676 17.352V23.4C114.676 23.896 114.436 24.144 113.956 24.144ZM129.065 28.464C128.825 28.464 128.641 28.4 128.513 28.272C128.385 28.144 128.321 27.96 128.321 27.72V12.96C128.321 12.704 128.385 12.512 128.513 12.384C128.641 12.256 128.825 12.192 129.065 12.192C129.289 12.192 129.465 12.256 129.593 12.384C129.721 12.512 129.785 12.704 129.785 12.96V15.408L129.521 15.264C129.793 14.304 130.313 13.544 131.081 12.984C131.849 12.424 132.777 12.144 133.865 12.144C134.905 12.144 135.809 12.392 136.577 12.888C137.361 13.384 137.961 14.08 138.377 14.976C138.809 15.872 139.025 16.936 139.025 18.168C139.025 19.4 138.809 20.472 138.377 21.384C137.961 22.28 137.369 22.976 136.601 23.472C135.833 23.952 134.921 24.192 133.865 24.192C132.777 24.192 131.849 23.912 131.081 23.352C130.313 22.792 129.793 22.048 129.521 21.12H129.785V27.72C129.785 27.96 129.721 28.144 129.593 28.272C129.465 28.4 129.289 28.464 129.065 28.464ZM133.649 22.968C134.433 22.968 135.113 22.784 135.689 22.416C136.281 22.032 136.737 21.48 137.057 20.76C137.377 20.04 137.537 19.176 137.537 18.168C137.537 16.648 137.185 15.472 136.481 14.64C135.777 13.808 134.833 13.392 133.649 13.392C132.865 13.392 132.177 13.584 131.585 13.968C131.009 14.336 130.561 14.88 130.241 15.6C129.921 16.304 129.761 17.16 129.761 18.168C129.761 19.704 130.113 20.888 130.817 21.72C131.521 22.552 132.465 22.968 133.649 22.968ZM144.55 24.096C144.31 24.096 144.126 24.024 143.998 23.88C143.87 23.736 143.806 23.544 143.806 23.304V13.032C143.806 12.776 143.87 12.584 143.998 12.456C144.126 12.328 144.31 12.264 144.55 12.264C144.774 12.264 144.95 12.328 145.078 12.456C145.206 12.584 145.27 12.776 145.27 13.032V23.304C145.27 23.544 145.206 23.736 145.078 23.88C144.966 24.024 144.79 24.096 144.55 24.096ZM144.55 9.36C144.214 9.36 143.95 9.272 143.758 9.096C143.582 8.92 143.494 8.672 143.494 8.352C143.494 8.032 143.582 7.792 143.758 7.632C143.95 7.456 144.214 7.368 144.55 7.368C144.886 7.368 145.142 7.456 145.318 7.632C145.51 7.792 145.606 8.032 145.606 8.352C145.606 8.672 145.51 8.92 145.318 9.096C145.142 9.272 144.886 9.36 144.55 9.36ZM154.598 24.192C153.878 24.192 153.158 24.096 152.438 23.904C151.734 23.712 151.062 23.384 150.422 22.92C150.294 22.84 150.206 22.744 150.158 22.632C150.126 22.504 150.118 22.376 150.134 22.248C150.166 22.12 150.222 22.016 150.302 21.936C150.398 21.84 150.51 21.784 150.638 21.768C150.766 21.752 150.902 21.792 151.046 21.888C151.67 22.304 152.278 22.592 152.87 22.752C153.462 22.912 154.054 22.992 154.646 22.992C155.622 22.992 156.366 22.808 156.878 22.44C157.39 22.072 157.646 21.576 157.646 20.952C157.646 20.44 157.478 20.048 157.142 19.776C156.822 19.488 156.294 19.256 155.558 19.08L153.47 18.6C152.462 18.376 151.718 18.016 151.238 17.52C150.758 17.008 150.518 16.352 150.518 15.552C150.518 14.864 150.694 14.264 151.046 13.752C151.414 13.24 151.926 12.848 152.582 12.576C153.254 12.288 154.022 12.144 154.886 12.144C155.59 12.144 156.262 12.248 156.902 12.456C157.542 12.664 158.102 12.984 158.582 13.416C158.71 13.512 158.79 13.624 158.822 13.752C158.87 13.88 158.87 14.008 158.822 14.136C158.79 14.248 158.726 14.344 158.63 14.424C158.534 14.504 158.422 14.544 158.294 14.544C158.166 14.544 158.03 14.496 157.886 14.4C157.422 14.048 156.934 13.792 156.422 13.632C155.91 13.456 155.39 13.368 154.862 13.368C153.934 13.368 153.214 13.56 152.702 13.944C152.206 14.328 151.958 14.848 151.958 15.504C151.958 16 152.11 16.4 152.414 16.704C152.734 17.008 153.23 17.24 153.902 17.4L155.99 17.88C157.03 18.12 157.806 18.48 158.318 18.96C158.83 19.424 159.086 20.056 159.086 20.856C159.086 21.88 158.678 22.696 157.862 23.304C157.062 23.896 155.974 24.192 154.598 24.192ZM164.691 24.144C164.451 24.144 164.267 24.08 164.139 23.952C164.011 23.824 163.947 23.64 163.947 23.4V7.68C163.947 7.424 164.011 7.24 164.139 7.128C164.267 7 164.451 6.936 164.691 6.936C164.915 6.936 165.091 7 165.219 7.128C165.347 7.24 165.411 7.424 165.411 7.68V15.072H165.123C165.443 14.112 165.987 13.384 166.755 12.888C167.539 12.392 168.435 12.144 169.443 12.144C170.371 12.144 171.139 12.312 171.747 12.648C172.371 12.984 172.835 13.488 173.139 14.16C173.443 14.832 173.595 15.664 173.595 16.656V23.4C173.595 23.64 173.531 23.824 173.403 23.952C173.275 24.08 173.099 24.144 172.875 24.144C172.635 24.144 172.451 24.08 172.323 23.952C172.195 23.824 172.131 23.64 172.131 23.4V16.776C172.131 15.608 171.899 14.76 171.435 14.232C170.971 13.688 170.235 13.416 169.227 13.416C168.075 13.416 167.147 13.776 166.443 14.496C165.755 15.2 165.411 16.152 165.411 17.352V23.4C165.411 23.896 165.171 24.144 164.691 24.144ZM184.121 24.192C182.921 24.192 181.889 23.952 181.025 23.472C180.161 22.992 179.497 22.304 179.033 21.408C178.569 20.512 178.337 19.448 178.337 18.216C178.337 17 178.569 15.944 179.033 15.048C179.497 14.136 180.137 13.424 180.953 12.912C181.785 12.4 182.737 12.144 183.809 12.144C184.593 12.144 185.281 12.28 185.873 12.552C186.481 12.808 186.993 13.184 187.409 13.68C187.841 14.16 188.169 14.752 188.393 15.456C188.617 16.144 188.729 16.928 188.729 17.808C188.729 18.032 188.665 18.2 188.537 18.312C188.425 18.424 188.265 18.48 188.057 18.48H179.393V17.4H187.817L187.433 17.712C187.433 16.784 187.297 16 187.025 15.36C186.753 14.704 186.345 14.2 185.801 13.848C185.273 13.496 184.617 13.32 183.833 13.32C182.953 13.32 182.209 13.528 181.601 13.944C180.993 14.344 180.537 14.904 180.233 15.624C179.929 16.328 179.777 17.144 179.777 18.072V18.192C179.777 19.728 180.153 20.912 180.905 21.744C181.657 22.56 182.713 22.968 184.073 22.968C184.665 22.968 185.233 22.888 185.777 22.728C186.337 22.568 186.881 22.296 187.409 21.912C187.569 21.8 187.721 21.744 187.865 21.744C188.025 21.744 188.153 21.784 188.249 21.864C188.361 21.944 188.433 22.048 188.465 22.176C188.513 22.288 188.505 22.416 188.441 22.56C188.393 22.688 188.289 22.808 188.129 22.92C187.617 23.336 187.001 23.656 186.281 23.88C185.561 24.088 184.841 24.192 184.121 24.192ZM194.137 24.144C193.897 24.144 193.713 24.08 193.585 23.952C193.457 23.824 193.393 23.64 193.393 23.4V7.68C193.393 7.424 193.457 7.24 193.585 7.128C193.713 7 193.897 6.936 194.137 6.936C194.361 6.936 194.537 7 194.665 7.128C194.793 7.24 194.857 7.424 194.857 7.68V15.072H194.569C194.889 14.112 195.433 13.384 196.201 12.888C196.985 12.392 197.881 12.144 198.889 12.144C199.817 12.144 200.585 12.312 201.193 12.648C201.817 12.984 202.281 13.488 202.585 14.16C202.889 14.832 203.041 15.664 203.041 16.656V23.4C203.041 23.64 202.977 23.824 202.849 23.952C202.721 24.08 202.545 24.144 202.321 24.144C202.081 24.144 201.897 24.08 201.769 23.952C201.641 23.824 201.577 23.64 201.577 23.4V16.776C201.577 15.608 201.345 14.76 200.881 14.232C200.417 13.688 199.681 13.416 198.673 13.416C197.521 13.416 196.593 13.776 195.889 14.496C195.201 15.2 194.857 16.152 194.857 17.352V23.4C194.857 23.896 194.617 24.144 194.137 24.144Z" fill="#1C1C1C"/>
<circle cx="31.5" cy="8.5" r="1.5" fill="#FF1010"/>
<circle cx="92.5" cy="8.5" r="1.5" fill="#FF1010"/>
<circle cx="144.5" cy="8.5" r="1.5" fill="#FF1010"/>
</svg>
