<svg width="89" height="89" viewBox="0 0 89 89" fill="none" xmlns="http://www.w3.org/2000/svg">
<path fill-rule="evenodd" clip-rule="evenodd" d="M44.5 89C69.0767 89 89 69.0767 89 44.5C89 19.9233 69.0767 0 44.5 0C19.9233 0 0 19.9233 0 44.5C0 69.0767 19.9233 89 44.5 89ZM25.76 59.64C28 60.84 30.68 61.44 33.8 61.44C35.16 61.44 36.52 61.28 37.88 60.96C39.2667 60.64 40.4267 60.2 41.36 59.64C42.0533 59.2667 42.5333 58.7733 42.8 58.16C43.0933 57.5467 43.1867 56.9333 43.08 56.32C42.9733 55.68 42.72 55.12 42.32 54.64C41.9467 54.16 41.44 53.84 40.8 53.68C40.1867 53.52 39.48 53.6133 38.68 53.96C37.9067 54.3333 37.12 54.6133 36.32 54.8C35.52 54.96 34.7733 55.04 34.08 55.04C32.4267 55.04 31.04 54.7333 29.92 54.12C28.8267 53.48 28 52.56 27.44 51.36C26.88 50.1333 26.6 48.64 26.6 46.88C26.6 45.12 26.88 43.64 27.44 42.44C28 41.24 28.8267 40.3333 29.92 39.72C31.04 39.08 32.4267 38.76 34.08 38.76C34.9333 38.76 35.7467 38.8667 36.52 39.08C37.32 39.2667 38.12 39.5467 38.92 39.92C39.6133 40.2667 40.2533 40.36 40.84 40.2C41.4267 40.0133 41.9067 39.6667 42.28 39.16C42.6533 38.6533 42.88 38.08 42.96 37.44C43.0667 36.8 42.9733 36.1733 42.68 35.56C42.3867 34.9467 41.8667 34.44 41.12 34.04C40.1067 33.48 38.9333 33.0667 37.6 32.8C36.2933 32.5067 35.0267 32.36 33.8 32.36C31.48 32.36 29.3867 32.7067 27.52 33.4C25.68 34.0667 24.1067 35.04 22.8 36.32C21.52 37.6 20.5333 39.1333 19.84 40.92C19.1733 42.7067 18.84 44.6933 18.84 46.88C18.84 49.8133 19.4267 52.3733 20.6 54.56C21.8 56.7467 23.52 58.44 25.76 59.64ZM56.1969 60.72C56.8369 61.1467 57.6635 61.36 58.6769 61.36C59.6902 61.36 60.5035 61.1467 61.1169 60.72C61.7302 60.2933 62.2369 59.6133 62.6369 58.68L72.3569 37.32C72.7835 36.3867 72.9169 35.5467 72.7569 34.8C72.6235 34.0533 72.2769 33.48 71.7169 33.08C71.1569 32.6533 70.4635 32.44 69.6369 32.44C68.6235 32.44 67.8369 32.68 67.2769 33.16C66.7169 33.6133 66.2369 34.3067 65.8369 35.24L58.7957 51.5659L51.7569 35.28C51.3569 34.3467 50.8769 33.64 50.3169 33.16C49.7835 32.68 48.9702 32.44 47.8769 32.44C46.9969 32.44 46.2635 32.6533 45.6769 33.08C45.0902 33.48 44.7169 34.0533 44.5569 34.8C44.3969 35.5467 44.5302 36.3867 44.9569 37.32L54.6369 58.68C55.0635 59.6133 55.5835 60.2933 56.1969 60.72Z" fill="#1F1E1E"/>
</svg>
