<svg width="89" height="89" viewBox="0 0 89 89" fill="none" xmlns="http://www.w3.org/2000/svg">
<path fill-rule="evenodd" clip-rule="evenodd" d="M44.5 89C69.0767 89 89 69.0767 89 44.5C89 19.9233 69.0767 0 44.5 0C19.9233 0 0 19.9233 0 44.5C0 69.0767 19.9233 89 44.5 89ZM18 36L42 21H69L64.5 24.375V33C64.5017 33.1162 64.4899 33.2322 64.4648 33.3457C64.9358 33.6092 65.3269 33.9948 65.5971 34.4619C65.8672 34.9291 66.0065 35.4604 66 36V39C66.0056 39.3975 65.9322 39.7922 65.7839 40.1611C65.6357 40.53 65.4156 40.8658 65.1365 41.1489C64.8574 41.432 64.5247 41.6568 64.158 41.8102C63.7912 41.9637 63.3976 42.0427 63 42.0427C62.6024 42.0427 62.2088 41.9637 61.842 41.8102C61.4753 41.6568 61.1426 41.432 60.8635 41.1489C60.5844 40.8658 60.3643 40.53 60.2161 40.1611C60.0678 39.7922 59.9944 39.3975 60 39V36C59.9935 35.4604 60.1328 34.9291 60.4029 34.4619C60.6731 33.9948 61.0642 33.6092 61.5352 33.3457C61.5189 33.272 61.5082 33.1973 61.5032 33.1221C61.5005 33.0815 61.4994 33.0408 61.5 33V26.6309L55.2891 31.2891H54.9199C54.9313 31.2994 54.9442 31.3084 54.957 31.3174C54.9705 31.327 54.9841 31.3365 54.9961 31.3477C55.0884 31.4101 55.1533 31.4752 55.2426 31.5648L55.2715 31.5938C56.6185 33.1147 56.8242 35.2557 56.8242 38.2617C56.8242 42.42 54.4991 44.3791 52.6612 45.9277C51.46 46.9399 50.4668 47.7767 50.4668 48.9375C50.4668 50.0624 51.7355 51.1048 53.2886 52.381C55.7408 54.3959 58.9021 56.9933 58.8984 61.418C58.8984 73.514 44.1738 72.8555 44.1738 72.8555C44.1738 72.8555 31.4238 73.3367 31.4238 63.5566C31.4238 54.074 45.1032 54.2135 46.5062 54.2278C46.5449 54.2282 46.5743 54.2285 46.5938 54.2285C46.4946 52.9251 45.9643 52.5067 45.5365 52.1691C45.2267 51.9247 44.9707 51.7227 44.9707 51.2578V48.5273C44.9707 48.5273 34.0195 49.7365 34.0195 39.0234C34.0195 38.1924 34.1276 37.394 34.2656 36.668C34.2931 36.5372 34.336 36.4156 34.3794 36.2945C34.4141 36.1974 34.4491 36.1008 34.4766 36H18ZM46.6348 30.7969C45.8068 30.3289 44.9377 30.1191 44.0742 30.1582C43.9215 30.1652 43.7686 30.18 43.616 30.2026C43.4811 30.2227 43.3466 30.2489 43.2129 30.2812C42.1994 30.5515 41.3862 31.1616 40.7695 32.0625C40.4343 32.5385 40.1588 33.1142 39.9902 33.7559C39.9874 33.7573 39.9841 33.7594 39.9805 33.7619C39.972 33.7679 39.9622 33.7758 39.9551 33.7793C39.9516 33.7918 39.9459 33.8029 39.9406 33.8143C39.9371 33.8218 39.9338 33.8295 39.9316 33.8379C39.3436 35.4609 39.272 37.4975 39.791 39.6035C40.964 43.9235 44.3545 46.7634 47.3965 45.9023C50.4715 45.1074 51.9525 40.9214 50.8125 36.5684C50.3295 34.7354 49.4284 33.1804 48.3574 32.1094C47.8384 31.5544 47.2557 31.1089 46.6348 30.7969ZM54.9609 62.2734C54.6489 58.4724 50.3251 55.6757 45.2461 56.0566C40.1311 56.4376 36.1965 59.7556 36.4395 63.5566C36.6824 67.3246 41.0695 70.0833 46.1484 69.7383C51.2634 69.3933 55.171 66.0414 54.9609 62.2734Z" fill="#1F1E1E"/>
</svg>
